<?xml version="1.0" encoding="utf-8"?>
<!-- Generator: Adobe Illustrator 22.0.0, SVG Export Plug-In . SVG Version: 6.00 Build 0)  -->
<svg version="1.1" id="Layer_1" xmlns="http://www.w3.org/2000/svg" xmlns:xlink="http://www.w3.org/1999/xlink" x="0px" y="0px"
	 viewBox="0 0 283.5 267.8" style="enable-background:new 0 0 283.5 267.8;" xml:space="preserve">
<style type="text/css">
	.st0{fill:#EB0505;}
	.st1{fill:#FFFFFF;}
</style>
<g>
	<g>
		<rect class="st0" width="283.5" height="267.8"/>
		<g>
			<path class="st1" d="M52.7,30.8v91.4H29V30.8H52.7z"/>
			<path class="st1" d="M68.5,122.1L84,30.8h23.4l18.5,48.8l19.6-48.8h23.7l13.7,91.4h-23.7l-6.7-52.6l-22.1,52.6H121L99.9,69.5
				l-7.8,52.6H68.5z"/>
			<path class="st1" d="M203.5,94.7c5.1,4.8,12.7,9.3,21,9.3c4.8,0,7.7-1.5,9.2-3.2c1.4-1.4,2.3-3.4,2.3-5.8c0-1.8-0.7-3.8-2.6-5.5
				c-2.3-2.1-5.9-3-11.8-4.8l-6.2-1.9c-3.8-1.2-9.5-3.3-13.1-7.4c-4.7-5.1-5.2-11.5-5.2-16.2c0-11.2,4.4-18.1,8.4-22.1
				c4.7-4.7,12.3-8.6,23.4-8.6c9,0,19.6,2.9,28.2,7.4l-9.5,18.5c-7.1-5.6-12.5-6.2-15.6-6.2c-2.3,0-5.5,0.5-7.8,2.7
				c-1.4,1.4-2.3,2.9-2.3,4.9c0,1.6,0.3,2.9,1.2,4.1c0.7,0.8,2.3,2.5,7.9,4.1l7.3,2.2c5.8,1.8,11.8,3.8,16.6,9
				c4.7,4.9,5.9,10,5.9,16.3c0,8.4-2.1,16.4-8.6,23c-7.8,7.8-17.3,9.3-27,9.3c-5.8,0-11.2-0.5-17.9-3c-1.5-0.5-7.3-2.7-13.8-7.3
				L203.5,94.7z"/>
		</g>
		<g>
			<path class="st1" d="M105.7,224.8H72.5l-6.2,15.3H41.3l35.1-91.4h25.9l34.4,91.4h-25.3L105.7,224.8z M99.4,206.8l-10.3-29.6
				l-10,29.6H99.4z"/>
			<path class="st1" d="M186.7,188.4h47.1c0,18.1-3.7,31-14.7,41.1c-9.6,8.9-20.5,11.5-32.2,11.5c-16.4,0-27.7-6-35.1-13.6
				c-6.8-6.8-13.1-17.9-13.1-33c0-14.5,5.8-26.4,13.7-34.2c7.5-7.5,19.3-13.4,35.5-13.4c8.5,0,17.7,1.9,24.7,6.2
				c7.1,4.4,13,11.6,16.3,18.8l-22.6,9.3c-1.6-4.2-4.2-7.3-6.6-9.2c-4-3.3-8.2-4.5-12.7-4.5c-5.6,0-11.4,2.1-15.6,6.3
				c-5.3,5.3-7.9,13.8-7.9,21c0,8.4,3,15.2,7.3,19.7c4.4,4.7,9.7,7,16.7,7c4.1,0,8.9-0.7,13.1-4.2c2.2-1.8,4.8-5.1,5.6-10.1h-19.4
				V188.4z"/>
		</g>
	</g>
</g>
</svg>
